<svg width="64" height="64" viewBox="0 0 64 64" fill="none" xmlns="http://www.w3.org/2000/svg">
<path d="M32.2663 47.5334C32.9775 47.5334 33.5774 47.2889 34.0663 46.8C34.5552 46.3111 34.7997 45.7112 34.7997 45C34.7997 44.2889 34.5552 43.6889 34.0663 43.2C33.5774 42.7112 32.9775 42.4667 32.2663 42.4667C31.5552 42.4667 30.9552 42.7112 30.4663 43.2C29.9775 43.6889 29.733 44.2889 29.733 45C29.733 45.7112 29.9775 46.3111 30.4663 46.8C30.9552 47.2889 31.5552 47.5334 32.2663 47.5334ZM29.933 37.8H33.8663C33.8663 36.6445 34.0108 35.5889 34.2997 34.6334C34.5886 33.6778 35.4886 32.5778 36.9997 31.3334C38.3774 30.1778 39.3552 29.0445 39.933 27.9334C40.5108 26.8223 40.7997 25.6 40.7997 24.2667C40.7997 21.9111 40.033 20.0223 38.4997 18.6C36.9663 17.1778 34.933 16.4667 32.3997 16.4667C30.2219 16.4667 28.2997 17.0112 26.633 18.1C24.9663 19.1889 23.7552 20.6889 22.9997 22.6L26.533 23.9334C27.0219 22.6889 27.7552 21.7223 28.733 21.0334C29.7108 20.3445 30.8663 20 32.1997 20C33.7108 20 34.933 20.4112 35.8663 21.2334C36.7997 22.0556 37.2663 23.1112 37.2663 24.4C37.2663 25.3778 36.9775 26.3 36.3997 27.1667C35.8219 28.0334 34.9775 28.9334 33.8663 29.8667C32.533 31.0223 31.5441 32.1667 30.8997 33.3C30.2552 34.4334 29.933 35.9334 29.933 37.8ZM31.9997 58.6667C28.3552 58.6667 24.9108 57.9667 21.6663 56.5667C18.4219 55.1667 15.5886 53.2556 13.1663 50.8334C10.7441 48.4111 8.83301 45.5778 7.43301 42.3334C6.03301 39.0889 5.33301 35.6445 5.33301 32C5.33301 28.3111 6.03301 24.8445 7.43301 21.6C8.83301 18.3556 10.7441 15.5334 13.1663 13.1334C15.5886 10.7334 18.4219 8.83337 21.6663 7.43337C24.9108 6.03337 28.3552 5.33337 31.9997 5.33337C35.6886 5.33337 39.1552 6.03337 42.3997 7.43337C45.6441 8.83337 48.4663 10.7334 50.8663 13.1334C53.2663 15.5334 55.1663 18.3556 56.5663 21.6C57.9663 24.8445 58.6663 28.3111 58.6663 32C58.6663 35.6445 57.9663 39.0889 56.5663 42.3334C55.1663 45.5778 53.2663 48.4111 50.8663 50.8334C48.4663 53.2556 45.6441 55.1667 42.3997 56.5667C39.1552 57.9667 35.6886 58.6667 31.9997 58.6667Z" fill="#2E6CDE"/>
</svg>
